<svg xmlns="http://www.w3.org/2000/svg" viewBox="0 0 455.7 455.7" fill="#fff">
    <path d="M0 0v455.7h455.7V0H0zm140 376c0 5.8-4.8 10.5-10.6 10.5H84.7c-5.8 0-10.5-4.7-10.5-10.5V185.2c0-5.8 4.7-10.5 10.5-10.5h44.7c5.8 0 10.5 4.7 10.5 10.5V376zm-33-230.5a38 38 0 01-38.2-38.2 38.3 38.3 0 0176.4.1 38 38 0 01-38.2 38zm279.9 236.7c0 2.4-2 4.3-4.4 4.3h-57.1c-2.4 0-4.4-2-4.4-4.4V264.3a36.8 36.8 0 00-37.3-36.8c-20.3.2-36.5 17-36.5 37.3v117.3c0 2.4-2 4.4-4.3 4.4h-57c-2.4 0-4.4-2-4.4-4.4v-203c0-2.5 2-4.4 4.4-4.4h55.8c2.4 0 4.3 2 4.3 4.3v23.5h.6a64.3 64.3 0 0156.4-33.3h11.5c40 0 72.4 32.5 72.4 72.5v140.5z" />
</svg>